<?xml version="1.0" encoding="iso-8859-1"?>
<!-- Generator: Adobe Illustrator 19.0.0, SVG Export Plug-In . SVG Version: 6.00 Build 0)  -->
<svg version="1.1" id="Capa_1" xmlns="http://www.w3.org/2000/svg" xmlns:xlink="http://www.w3.org/1999/xlink" x="0px" y="0px"
	 viewBox="0 0 512 512" style="enable-background:new 0 0 512 512;" xml:space="preserve">
<g>
	<g>
		<path d="M432.37,80.882h-58.477v-13.38c0-5.523-4.477-10-10-10H310.42c0.145-2.666,0.095-5.353-0.151-8.05
			c-2.397-26.286-24.064-47.487-50.4-49.315c-15.296-1.064-29.874,4.091-41.041,14.51c-11.012,10.274-17.328,24.801-17.328,39.856
			c0,1.002,0.027,2.002,0.082,3h-53.476c-5.523,0-10,4.477-10,10v13.38H79.631c-5.523,0-10,4.477-10,10V502c0,5.523,4.477,10,10,10
			H432.37c5.523,0,10-4.477,10-10V90.882C442.37,85.359,437.893,80.882,432.37,80.882z M158.107,77.502h55.328
			c3.169,0,6.151-1.502,8.037-4.049c1.886-2.547,2.453-5.838,1.527-8.869c-0.995-3.26-1.499-6.652-1.499-10.082
			c0-9.67,3.896-18.631,10.972-25.232c7.068-6.594,16.31-9.854,26.013-9.181c16.652,1.156,30.353,14.56,31.868,31.179
			c0.414,4.54-0.041,9.02-1.352,13.317c-0.925,3.031-0.357,6.321,1.528,8.868s4.868,4.049,8.037,4.049h55.328v25.803
			c0,9.482-7.714,17.197-17.197,17.197H175.304c-9.482,0-17.197-7.714-17.197-17.197V77.502z M382.37,140.501v311.498H129.63
			V140.501H382.37z M422.37,491.999H89.631V100.882h48.477v2.423c0,6.202,1.534,12.05,4.23,17.197H119.63c-5.523,0-10,4.477-10,10
			v331.498c0,5.523,4.477,10,10,10H392.37c5.523,0,10-4.477,10-10V130.501c0-5.523-4.477-10-10-10h-22.707
			c2.696-5.147,4.23-10.995,4.23-17.197v-2.423h48.477V491.999z"/>
	</g>
</g>
<g>
	<g>
		<path d="M344.619,368.04c-0.13-0.64-0.32-1.27-0.57-1.87c-0.25-0.61-0.56-1.19-0.92-1.73c-0.36-0.55-0.78-1.06-1.24-1.52
			c-2.32-2.32-5.78-3.39-9.03-2.73c-0.63,0.13-1.26,0.32-1.87,0.57c-0.6,0.25-1.18,0.56-1.72,0.92c-0.55,0.36-1.06,0.78-1.52,1.24
			c-0.46,0.46-0.88,0.97-1.25,1.52c-0.36,0.54-0.67,1.12-0.92,1.73c-0.25,0.6-0.44,1.23-0.57,1.87c-0.13,0.64-0.19,1.3-0.19,1.95
			s0.06,1.31,0.19,1.96c0.13,0.63,0.32,1.26,0.57,1.87c0.25,0.6,0.56,1.18,0.92,1.72c0.37,0.55,0.79,1.06,1.25,1.52
			c0.46,0.46,0.97,0.88,1.52,1.25c0.54,0.36,1.12,0.67,1.72,0.92c0.61,0.25,1.24,0.44,1.87,0.57c0.65,0.13,1.31,0.19,1.96,0.19
			s1.31-0.06,1.95-0.19s1.27-0.32,1.87-0.57c0.61-0.25,1.19-0.56,1.73-0.92c0.55-0.37,1.06-0.79,1.52-1.25
			c0.46-0.46,0.88-0.97,1.24-1.52c0.36-0.54,0.67-1.12,0.92-1.72c0.25-0.61,0.44-1.24,0.57-1.87c0.13-0.65,0.2-1.31,0.2-1.96
			C344.819,369.34,344.749,368.68,344.619,368.04z"/>
	</g>
</g>
<g>
	<g>
		<path d="M300.182,359.993H177.183c-5.523,0-10,4.477-10,10c0,5.523,4.477,10,10,10h122.999c5.523,0,10-4.477,10-10
			C310.182,364.47,305.705,359.993,300.182,359.993z"/>
	</g>
</g>
<g>
	<g>
		<path d="M298.499,394.5H213.5c-5.523,0-10,4.477-10,10c0,5.523,4.477,10,10,10h84.999c5.523,0,10-4.477,10-10
			C308.499,398.977,304.022,394.5,298.499,394.5z"/>
	</g>
</g>
<g>
	<g>
		<path d="M341.327,237.038c0-0.036-0.001-0.084-0.003-0.133c-0.008-0.857-0.031-1.724-0.073-2.605
			c-0.445-9.286-3.062-18.381-7.567-26.304c-0.401-0.706-0.816-1.4-1.246-2.085c-7.242-11.545-17.95-19.46-30.152-22.288
			c-3.222-0.746-6.532-1.125-9.838-1.125c-15.944,0-28.848,7.65-36.448,13.572c-7.6-5.922-20.504-13.572-36.448-13.572
			c-3.306,0-6.616,0.378-9.839,1.125c-12.202,2.827-22.91,10.742-30.153,22.289c-0.429,0.684-0.844,1.378-1.246,2.085
			c-4.505,7.922-7.121,17.017-7.566,26.303c-0.043,0.9-0.066,1.785-0.073,2.594c-0.001,0.052-0.002,0.104-0.003,0.144
			c-0.001,0.052-0.001,0.104-0.001,0.156c0,0.018,0,0.038,0,0.057c-0.031,6.218,0.776,12.065,2.468,17.866
			c1.609,5.527,4.047,11.021,7.462,16.809c0.068,0.115,0.141,0.233,0.191,0.311c11.875,19.643,63.81,53.715,69.692,57.536
			c1.526,0.991,3.261,1.523,5.014,1.597c0.189,0.011,0.38,0.016,0.57,0.016c1.896,0,3.791-0.539,5.446-1.613
			c5.876-3.816,57.7-37.815,69.679-57.513c0.07-0.112,0.14-0.225,0.213-0.349c3.406-5.772,5.844-11.266,7.453-16.791
			c1.697-5.82,2.505-11.682,2.469-17.856c0-0.024,0-0.048,0-0.07C341.328,237.142,341.328,237.09,341.327,237.038z M319.659,249.522
			c-1.149,3.945-2.88,7.813-5.436,12.154l-0.131,0.212c-6.577,10.878-37.089,33.502-58.092,47.561
			c-21.002-14.059-51.514-36.679-58.065-47.516l-0.15-0.244c-2.564-4.355-4.294-8.223-5.444-12.17
			c-1.141-3.912-1.687-7.878-1.669-12.185c-0.001-0.054,0-0.109,0-0.154c0.005-0.633,0.021-1.273,0.053-1.925
			c0.295-6.162,2.015-12.169,4.974-17.372c0.26-0.457,0.528-0.906,0.805-1.347c4.414-7.036,10.708-11.806,17.722-13.431
			c1.745-0.404,3.537-0.609,5.326-0.609c16.421,0,28.882,13.538,28.988,13.655c1.889,2.115,4.603,3.312,7.438,3.322
			c0.012,0,0.024,0,0.037,0c2.822,0,5.53-1.21,7.426-3.302c0.124-0.137,12.585-13.675,29.006-13.675c1.79,0,3.581,0.205,5.325,0.608
			c7.016,1.625,13.31,6.396,17.722,13.43c0.277,0.442,0.546,0.892,0.805,1.347c2.959,5.204,4.68,11.211,4.975,17.373
			c0.031,0.651,0.047,1.292,0.053,1.996c0,0.023,0.001,0.052,0.002,0.083C321.352,241.602,320.806,245.588,319.659,249.522z"/>
	</g>
</g>
<g>
	<g>
		<path d="M331.193,272.259c-0.003,0.005-0.007,0.011-0.01,0.017l0.014-0.023C331.196,272.255,331.194,272.257,331.193,272.259z"/>
	</g>
</g>
<g>
</g>
<g>
</g>
<g>
</g>
<g>
</g>
<g>
</g>
<g>
</g>
<g>
</g>
<g>
</g>
<g>
</g>
<g>
</g>
<g>
</g>
<g>
</g>
<g>
</g>
<g>
</g>
<g>
</g>
</svg>
